# xmcd CD database file
#
# Track frame offsets:
#	150
#	21167
#	38240
#	56495
#	75800
#	95092
#	116235
#	126227
#	149650
#	168932
#	188345
#	209052
#
# Disc length: 3145 seconds
#
# Revision: 0
# Processed by: cddbd v1.5.1PL0 Copyright (c) Steve Scherf et al.
# Submitted via: CDex 1.51
#
DISCID=a60c470c
DTITLE=メトロファルス - 俺さま祭り
DYEAR=1998
DGENRE=Rock
TTITLE0=俺さま祭り
TTITLE1=東京UNDERGROUND
TTITLE2=夜のポストリュード
TTITLE3=のるかそるかPOLKA
TTITLE4=へなちょこBLUE
TTITLE5=たまらん節
TTITLE6=聖珠
TTITLE7=吉祥天女
TTITLE8=ほーせんか　ぱん！
TTITLE9=消えゆく男達
TTITLE10=PIGEON WING
TTITLE11=米の歌(アルバムバージョン)
EXTD=YEAR: 1998
EXTT0=
EXTT1=
EXTT2=
EXTT3=
EXTT4=
EXTT5=
EXTT6=
EXTT7=
EXTT8=
EXTT9=
EXTT10=
EXTT11=
PLAYORDER=
